<svg width="239" height="48" viewBox="0 0 239 48" fill="none" xmlns="http://www.w3.org/2000/svg">
<path d="M33.2 30.616H22.896V41.24H10.864V30.616H0.496V19.288H10.864V8.6H22.896V19.288H33.2V30.616Z" fill="#FD7B01"/>
<path d="M36.8395 11.992V0.216H56.5515V47H43.4315V11.992H36.8395Z" fill="white"/>
<path d="M62.4855 24.344C62.4855 19.9067 63.4028 15.96 65.2375 12.504C67.1148 9.00533 69.7602 6.296 73.1735 4.376C76.5868 2.41333 80.5122 1.432 84.9495 1.432C90.5815 1.432 95.3175 2.94667 99.1575 5.976C102.998 8.96266 105.472 13.0373 106.582 18.2H93.0775C92.2668 16.4933 91.1362 15.192 89.6855 14.296C88.2775 13.4 86.6348 12.952 84.7575 12.952C81.8562 12.952 79.5308 13.9973 77.7815 16.088C76.0748 18.136 75.2215 20.888 75.2215 24.344C75.2215 27.8427 76.0748 30.6373 77.7815 32.728C79.5308 34.776 81.8562 35.8 84.7575 35.8C86.6348 35.8 88.2775 35.352 89.6855 34.456C91.1362 33.56 92.2668 32.2587 93.0775 30.552H106.582C105.472 35.7147 102.998 39.8107 99.1575 42.84C95.3175 45.8267 90.5815 47.32 84.9495 47.32C80.5122 47.32 76.5868 46.36 73.1735 44.44C69.7602 42.4773 67.1148 39.768 65.2375 36.312C63.4028 32.8133 62.4855 28.824 62.4855 24.344ZM134.154 47.448C129.93 47.448 126.047 46.4667 122.506 44.504C118.964 42.4987 116.148 39.7467 114.058 36.248C112.01 32.7067 110.986 28.7173 110.986 24.28C110.986 19.8427 112.01 15.8747 114.058 12.376C116.148 8.83467 118.964 6.08267 122.506 4.12C126.047 2.15733 129.93 1.176 134.154 1.176C138.42 1.176 142.303 2.15733 145.802 4.12C149.343 6.08267 152.138 8.83467 154.186 12.376C156.234 15.8747 157.258 19.8427 157.258 24.28C157.258 28.7173 156.234 32.7067 154.186 36.248C152.138 39.7467 149.343 42.4987 145.802 44.504C142.26 46.4667 138.378 47.448 134.154 47.448ZM134.154 35.8C137.354 35.8 139.871 34.7547 141.706 32.664C143.583 30.5733 144.522 27.7787 144.522 24.28C144.522 20.696 143.583 17.88 141.706 15.832C139.871 13.7413 137.354 12.696 134.154 12.696C130.911 12.696 128.372 13.7413 126.538 15.832C124.703 17.88 123.786 20.696 123.786 24.28C123.786 27.8213 124.703 30.6373 126.538 32.728C128.372 34.776 130.911 35.8 134.154 35.8ZM180.753 1.88C185.489 1.88 189.627 2.84 193.169 4.76C196.753 6.63733 199.505 9.28266 201.425 12.696C203.345 16.1093 204.305 20.0133 204.305 24.408C204.305 28.76 203.323 32.6427 201.361 36.056C199.441 39.4693 196.689 42.1573 193.104 44.12C189.563 46.04 185.446 47 180.753 47H162.897V1.88H180.753ZM179.793 35.928C183.462 35.928 186.342 34.9253 188.433 32.92C190.523 30.9147 191.569 28.0773 191.569 24.408C191.569 20.696 190.523 17.8373 188.433 15.832C186.342 13.784 183.462 12.76 179.793 12.76H175.441V35.928H179.793ZM222.503 11.928V19.288H236.903V28.824H222.503V36.952H238.823V47H209.959V1.88H238.823V11.928H222.503Z" fill="#6433E4"/>
</svg>
